<?xml version="1.0" encoding="UTF-8" standalone="no"?>
<svg
   xmlns:dc="http://purl.org/dc/elements/1.1/"
   xmlns:cc="http://creativecommons.org/ns#"
   xmlns:rdf="http://www.w3.org/1999/02/22-rdf-syntax-ns#"
   xmlns:svg="http://www.w3.org/2000/svg"
   xmlns="http://www.w3.org/2000/svg"
   xmlns:sodipodi="http://sodipodi.sourceforge.net/DTD/sodipodi-0.dtd"
   xmlns:inkscape="http://www.inkscape.org/namespaces/inkscape"
   viewBox="0 0 400 225"
   version="1.1"
   id="svg64"
   sodipodi:docname="icon.svg"
   inkscape:version="0.92.4 (5da689c313, 2019-01-14)">
  <metadata
     id="metadata68">
    <rdf:RDF>
      <cc:Work
         rdf:about="">
        <dc:format>image/svg+xml</dc:format>
        <dc:type
           rdf:resource="http://purl.org/dc/dcmitype/StillImage" />
      </cc:Work>
    </rdf:RDF>
  </metadata>
  <sodipodi:namedview
     pagecolor="#ffffff"
     bordercolor="#666666"
     borderopacity="1"
     objecttolerance="10"
     gridtolerance="10"
     guidetolerance="10"
     inkscape:pageopacity="0"
     inkscape:pageshadow="2"
     inkscape:window-width="1920"
     inkscape:window-height="1129"
     id="namedview66"
     showgrid="false"
     inkscape:zoom="3.17"
     inkscape:cx="156.54005"
     inkscape:cy="90.372494"
     inkscape:window-x="-8"
     inkscape:window-y="-8"
     inkscape:window-maximized="1"
     inkscape:current-layer="g58" />
  <defs
     id="defs4">
    <style
       id="style2">
      .cls-1 {
        fill: #f06060;
      }

      .cls-2 {
        opacity: 0.15;
      }

      .cls-3 {
        fill: #231f20;
      }

      .cls-4 {
        fill: #fff;
      }

      .cls-5 {
        fill: #79aad3;
      }

      .cls-6 {
        fill: #b0afad;
      }

      .cls-7 {
        fill: none;
      }
    </style>
  </defs>
  <title
     id="title6">fill in the blanks</title>
  <g
     id="Layer_2"
     data-name="Layer 2">
    <g
       id="fill_in_the_blanks"
       data-name="fill in the blanks">
      <g
         id="g58">
        <rect
           class="cls-1"
           x="134.42999"
           y="26.709999"
           width="139.14"
           height="173.59"
           id="rect8"
           style="fill:#aa0000" />
        <g
           id="g16">
          <g
             class="cls-2"
             id="g12"
             style="opacity:0.15">
            <rect
               class="cls-3"
               x="150.44"
               y="43.369999"
               width="112.96"
               height="146.09"
               id="rect10"
               style="fill:#231f20" />
          </g>
          <rect
             class="cls-4"
             x="147.52"
             y="40.459999"
             width="112.96"
             height="146.09"
             id="rect14"
             style="fill:#ffffff" />
        </g>
        <path
           class="cls-5"
           d="m 200.13,76.27 h -25.56 a 2.33,2.33 0 0 1 -2.33,-2.33 v -4.66 a 2.51,2.51 0 0 1 2.33,-2.53 h 25.56 a 2.51,2.51 0 0 1 2.33,2.53 v 4.66 a 2.33,2.33 0 0 1 -2.33,2.33 z m -25.47,-7.19 a 0.38,0.38 0 0 0 -0.09,0.19 v 4.66 h 25.56 v -4.65 a 0.38,0.38 0 0 0 -0.09,-0.19 z"
           id="path18"
           inkscape:connector-curvature="0"
           style="fill:#79aad3" />
        <path
           class="cls-6"
           d="m 168.44,75.11 h -6.59 a 1.17,1.17 0 0 1 -1.17,-1.17 v -4.66 a 1.35,1.35 0 0 1 1.17,-1.36 h 6.59 a 1.35,1.35 0 0 1 1.17,1.36 v 4.66 a 1.17,1.17 0 0 1 -1.17,1.17 z"
           id="path20"
           inkscape:connector-curvature="0"
           style="fill:#b0afad" />
        <path
           class="cls-6"
           d="m 220.14,75.11 h -13.73 a 1.17,1.17 0 0 1 -1.17,-1.17 v -4.66 a 1.35,1.35 0 0 1 1.17,-1.36 h 13.73 a 1.35,1.35 0 0 1 1.17,1.36 v 4.66 a 1.17,1.17 0 0 1 -1.17,1.17 z"
           id="path22"
           inkscape:connector-curvature="0"
           style="fill:#b0afad" />
        <path
           class="cls-6"
           d="m 248.57,75.11 h -21.69 a 1.17,1.17 0 0 1 -1.17,-1.17 v -4.66 a 1.35,1.35 0 0 1 1.17,-1.36 h 21.68 a 1.35,1.35 0 0 1 1.17,1.36 v 4.66 a 1.17,1.17 0 0 1 -1.16,1.17 z"
           id="path24"
           inkscape:connector-curvature="0"
           style="fill:#b0afad" />
        <rect
           class="cls-6"
           x="160.69"
           y="89.459999"
           width="12.72"
           height="7.1900001"
           rx="1.17"
           ry="1.17"
           id="rect26"
           style="fill:#b0afad" />
        <rect
           class="cls-6"
           x="176.87"
           y="89.459999"
           width="9.9399996"
           height="7.1900001"
           rx="1.17"
           ry="1.17"
           id="rect28"
           style="fill:#b0afad" />
        <rect
           class="cls-6"
           x="211.36"
           y="89.459999"
           width="19.68"
           height="7.1900001"
           rx="1.17"
           ry="1.17"
           id="rect30"
           style="fill:#b0afad" />
        <rect
           class="cls-6"
           x="234.61"
           y="89.459999"
           width="7.5599999"
           height="7.1900001"
           rx="1.17"
           ry="1.17"
           id="rect32"
           style="fill:#b0afad" />
        <path
           class="cls-5"
           d="m 206,97.81 h -14.52 a 2.33,2.33 0 0 1 -2.33,-2.33 v -4.86 a 2.33,2.33 0 0 1 2.33,-2.33 H 206 a 2.33,2.33 0 0 1 2.33,2.33 v 4.85 A 2.33,2.33 0 0 1 206,97.81 Z m -14.57,-7.19 v 4.85 H 206 v -4.85 z"
           id="path34"
           inkscape:connector-curvature="0"
           style="fill:#79aad3" />
        <rect
           class="cls-6"
           x="223.33"
           y="111"
           width="9.9399996"
           height="7.1900001"
           rx="1.17"
           ry="1.17"
           id="rect36"
           style="fill:#b0afad" />
        <rect
           class="cls-6"
           x="160.69"
           y="111"
           width="15.12"
           height="7.1900001"
           rx="1.17"
           ry="1.17"
           id="rect38"
           style="fill:#b0afad" />
        <rect
           class="cls-6"
           x="179.58"
           y="111"
           width="39.68"
           height="7.1900001"
           rx="1.17"
           ry="1.17"
           id="rect40"
           style="fill:#b0afad" />
        <rect
           class="cls-6"
           x="160.69"
           y="132.53999"
           width="8.9200001"
           height="7.1900001"
           rx="1.17"
           ry="1.17"
           id="rect42"
           style="fill:#b0afad" />
        <rect
           class="cls-6"
           x="187.92"
           y="132.53999"
           width="13.95"
           height="7.1900001"
           rx="1.17"
           ry="1.17"
           id="rect44"
           style="fill:#b0afad" />
        <rect
           class="cls-6"
           x="205.78999"
           y="132.53999"
           width="24.200001"
           height="7.1900001"
           rx="1.17"
           ry="1.17"
           id="rect46"
           style="fill:#b0afad" />
        <rect
           class="cls-6"
           x="233.55"
           y="132.53999"
           width="14.02"
           height="7.1900001"
           rx="1.17"
           ry="1.17"
           id="rect48"
           style="fill:#b0afad" />
        <path
           class="cls-5"
           d="m 183.23,140.89 h -8.66 a 2.33,2.33 0 0 1 -2.33,-2.33 v -4.86 a 2.33,2.33 0 0 1 2.33,-2.33 h 8.66 a 2.33,2.33 0 0 1 2.33,2.33 v 4.85 a 2.33,2.33 0 0 1 -2.33,2.34 z m -8.66,-7.19 v 4.85 h 8.66 v -4.85 z"
           id="path50"
           inkscape:connector-curvature="0"
           style="fill:#79aad3" />
        <rect
           class="cls-6"
           x="160.69"
           y="154.07001"
           width="23.709999"
           height="7.1900001"
           rx="1.17"
           ry="1.17"
           id="rect52"
           style="fill:#b0afad" />
        <rect
           class="cls-6"
           x="187.75"
           y="154.07001"
           width="5.0700002"
           height="7.1900001"
           rx="1.17"
           ry="1.17"
           id="rect54"
           style="fill:#b0afad" />
        <path
           class="cls-5"
           d="m 224.55,162.43 h -27.46 a 2.33,2.33 0 0 1 -2.33,-2.33 v -4.85 a 2.33,2.33 0 0 1 2.33,-2.33 h 27.46 a 2.33,2.33 0 0 1 2.33,2.33 v 4.85 a 2.33,2.33 0 0 1 -2.33,2.33 z m -27.46,-7.19 v 4.85 h 27.46 v -4.85 z"
           id="path56"
           inkscape:connector-curvature="0"
           style="fill:#79aad3" />
        <text
           xml:space="preserve"
           style="font-style:normal;font-variant:normal;font-weight:normal;font-stretch:normal;font-size:20.86055374px;line-height:1.25;font-family:sans-serif;-inkscape-font-specification:'sans-serif, Normal';font-variant-ligatures:normal;font-variant-caps:normal;font-variant-numeric:normal;font-feature-settings:normal;text-align:start;letter-spacing:0px;word-spacing:0px;writing-mode:lr-tb;text-anchor:start;fill:#000000;fill-opacity:1;stroke:none;stroke-width:1.30378461"
           x="121.70722"
           y="234.19672"
           id="text877"
           transform="scale(1.3037846,0.76699787)"><tspan
             sodipodi:role="line"
             id="tspan875"
             x="121.70722"
             y="234.19672"
             style="font-style:normal;font-variant:normal;font-weight:normal;font-stretch:normal;font-size:20.86055374px;font-family:sans-serif;-inkscape-font-specification:'sans-serif, Normal';font-variant-ligatures:normal;font-variant-caps:normal;font-variant-numeric:normal;font-feature-settings:normal;text-align:start;writing-mode:lr-tb;text-anchor:start;stroke-width:1.30378461">papi Jo</tspan></text>
        <text
           transform="scale(1.1517729,0.86822674)"
           id="text881"
           y="68.678307"
           x="137.85008"
           style="font-style:normal;font-variant:normal;font-weight:normal;font-stretch:normal;font-size:18.42836571px;line-height:1.25;font-family:sans-serif;-inkscape-font-specification:'sans-serif, Normal';font-variant-ligatures:normal;font-variant-caps:normal;font-variant-numeric:normal;font-feature-settings:normal;text-align:start;letter-spacing:0px;word-spacing:0px;writing-mode:lr-tb;text-anchor:start;fill:#000000;fill-opacity:1;stroke:none;stroke-width:1.15177286"
           xml:space="preserve"><tspan
             style="font-style:normal;font-variant:normal;font-weight:normal;font-stretch:normal;font-size:18.42836571px;font-family:sans-serif;-inkscape-font-specification:'sans-serif, Normal';font-variant-ligatures:normal;font-variant-caps:normal;font-variant-numeric:normal;font-feature-settings:normal;text-align:start;writing-mode:lr-tb;text-anchor:start;stroke-width:1.15177286"
             y="68.678307"
             x="137.85008"
             id="tspan879"
             sodipodi:role="line">Adv FITB</tspan></text>
      </g>
      <rect
         class="cls-7"
         width="400"
         height="225"
         id="rect60"
         x="0"
         y="0"
         style="fill:none" />
    </g>
  </g>
</svg>
